<svg width="102" height="104" viewBox="0 0 102 104" fill="none" xmlns="http://www.w3.org/2000/svg">
<path d="M24.8625 74.1C28.475 71.2833 32.5125 69.0625 36.975 67.4375C41.4375 65.8125 46.1125 65 51 65C55.8875 65 60.5625 65.8125 65.025 67.4375C69.4875 69.0625 73.525 71.2833 77.1375 74.1C79.6167 71.1389 81.5469 67.7805 82.9281 64.025C84.3094 60.2694 85 56.2611 85 52C85 42.3944 81.6885 34.2152 75.0656 27.4625C68.4427 20.7097 60.4208 17.3333 51 17.3333C41.5792 17.3333 33.5573 20.7097 26.9344 27.4625C20.3115 34.2152 17 42.3944 17 52C17 56.2611 17.6906 60.2694 19.0719 64.025C20.4531 67.7805 22.3833 71.1389 24.8625 74.1ZM51 56.3333C46.8208 56.3333 43.2969 54.8708 40.4281 51.9458C37.5594 49.0208 36.125 45.4277 36.125 41.1666C36.125 36.9055 37.5594 33.3125 40.4281 30.3875C43.2969 27.4625 46.8208 26 51 26C55.1792 26 58.7031 27.4625 61.5719 30.3875C64.4406 33.3125 65.875 36.9055 65.875 41.1666C65.875 45.4277 64.4406 49.0208 61.5719 51.9458C58.7031 54.8708 55.1792 56.3333 51 56.3333ZM51 95.3333C45.1208 95.3333 39.5958 94.1958 34.425 91.9208C29.2542 89.6458 24.7563 86.5583 20.9312 82.6583C17.1062 78.7583 14.0781 74.1722 11.8469 68.9C9.61562 63.6277 8.5 57.9944 8.5 52C8.5 46.0055 9.61562 40.3722 11.8469 35.1C14.0781 29.8277 17.1062 25.2416 20.9312 21.3416C24.7563 17.4416 29.2542 14.3541 34.425 12.0791C39.5958 9.80413 45.1208 8.66663 51 8.66663C56.8792 8.66663 62.4042 9.80413 67.575 12.0791C72.7458 14.3541 77.2438 17.4416 81.0688 21.3416C84.8938 25.2416 87.9219 29.8277 90.1531 35.1C92.3844 40.3722 93.5 46.0055 93.5 52C93.5 57.9944 92.3844 63.6277 90.1531 68.9C87.9219 74.1722 84.8938 78.7583 81.0688 82.6583C77.2438 86.5583 72.7458 89.6458 67.575 91.9208C62.4042 94.1958 56.8792 95.3333 51 95.3333Z" fill="#1D1B20"/>
</svg>
